# xmcd
#
# Track frame offsets: 
#        150
#        35268
#        63012
#        91290
#
# Disc length: 1565 seconds
#
# Revision: 0
# Processed by: cddbd v1.5.2PL0 Copyright (c) Steve Scherf et al.
# Submitted via: ExactAudioCopy v0.95b4
#
DISCID=24061b04
DTITLE=Fragma - Man in the moon
DYEAR=1900
DGENRE=
TTITLE0=2003 ckub mix
TTITLE1=duderstadt remix
TTITLE2=dj  kadozer remix
TTITLE3=dj kadozer dub mix
EXTD=
EXTT0=
EXTT1=
EXTT2=
EXTT3=
PLAYORDER=
